<svg aria-hidden="true" style="position: absolute; width: 0; height: 0; overflow: hidden;" version="1.1" xmlns="http://www.w3.org/2000/svg" xmlns:xlink="http://www.w3.org/1999/xlink">
<defs>
<symbol id="icon-login" viewBox="0 0 32 32">
<path stroke-lineJoin="round" stroke-lineCap="round" stroke-miterLimit="4" stroke-width="3.2" d="M20 4h1.6c2.24 0 3.36 0 4.216 0.436 0.753 0.383 1.364 0.995 1.748 1.748 0.436 0.856 0.436 1.976 0.436 4.216v11.2c0 2.24 0 3.36-0.436 4.216-0.384 0.753-0.995 1.364-1.748 1.748-0.856 0.436-1.976 0.436-4.216 0.436h-1.6"></path>
<path stroke-lineJoin="round" stroke-lineCap="round" stroke-miterLimit="4" stroke-width="3.2" d="M13.333 9.333l6.667 6.667M20 16l-6.667 6.667M20 16h-16"></path>
</symbol>
<symbol id="icon-book" viewBox="0 0 32 32">
<path stroke-lineJoin="round" stroke-lineCap="round" stroke-miterLimit="4" stroke-width="3" d="M29.333 8.267c0-1.493 0-2.24-0.291-2.811-0.256-0.502-0.664-0.91-1.165-1.165-0.571-0.291-1.317-0.291-2.811-0.291h-0.533c-2.987 0-4.48 0-5.621 0.581-1.004 0.511-1.819 1.327-2.331 2.331-0.581 1.141-0.581 2.634-0.581 5.621v15.467l0.133-0.2c0.926-1.389 1.389-2.084 2.001-2.587 0.542-0.445 1.166-0.779 1.837-0.983 0.758-0.23 1.593-0.23 3.262-0.23h1.833c1.494 0 2.24 0 2.811-0.291 0.502-0.256 0.91-0.664 1.165-1.165 0.291-0.57 0.291-1.317 0.291-2.811v-11.467z"></path>
<path stroke-lineJoin="round" stroke-lineCap="round" stroke-miterLimit="4" stroke-width="3" d="M2.667 8.267c0-1.493 0-2.24 0.291-2.811 0.256-0.502 0.664-0.91 1.165-1.165 0.57-0.291 1.317-0.291 2.811-0.291h0.533c2.987 0 4.48 0 5.621 0.581 1.004 0.511 1.819 1.327 2.331 2.331 0.581 1.141 0.581 2.634 0.581 5.621v15.467l-0.133-0.2c-0.926-1.389-1.389-2.084-2.001-2.587-0.542-0.445-1.166-0.779-1.837-0.983-0.758-0.23-1.593-0.23-3.262-0.23h-1.833c-1.493 0-2.24 0-2.811-0.291-0.502-0.256-0.91-0.664-1.165-1.165-0.291-0.57-0.291-1.317-0.291-2.811v-11.467z"></path>
</symbol>
<symbol id="icon-heart" viewBox="0 0 36 32">
<path stroke-lineJoin="round" stroke-lineCap="round" stroke-miterLimit="4" stroke-width="2.9091" d="M31.853 3.994c-0.805-0.805-1.76-1.444-2.812-1.88s-2.179-0.66-3.318-0.66-2.266 0.224-3.318 0.66c-1.052 0.436-2.007 1.075-2.812 1.88l-1.67 1.67-1.67-1.67c-1.626-1.626-3.831-2.539-6.13-2.539s-4.504 0.913-6.13 2.539c-1.626 1.626-2.539 3.831-2.539 6.13s0.913 4.504 2.539 6.13l13.93 13.93 13.93-13.93c0.805-0.805 1.444-1.76 1.88-2.812s0.66-2.179 0.66-3.318c0-1.138-0.224-2.266-0.66-3.318s-1.074-2.007-1.88-2.812z"></path>
</symbol>
<symbol id="icon-star" viewBox="0 0 35 32">
<path d="M16.211 25.758l-8.288 4.999c-0.279 0.169-0.57 0.245-0.872 0.227s-0.571-0.112-0.807-0.282c-0.236-0.169-0.411-0.388-0.525-0.657s-0.138-0.573-0.072-0.911l2.188-9.444-7.31-6.377c-0.265-0.228-0.428-0.486-0.486-0.774s-0.051-0.567 0.022-0.84c0.066-0.273 0.219-0.503 0.459-0.69s0.528-0.297 0.867-0.326l9.665-0.844 3.744-8.921c0.133-0.309 0.334-0.539 0.603-0.69s0.539-0.227 0.812-0.227 0.543 0.076 0.812 0.227c0.269 0.151 0.47 0.381 0.603 0.69l3.744 8.921 9.676 0.844c0.332 0.030 0.617 0.138 0.856 0.326s0.392 0.418 0.459 0.69c0.074 0.273 0.081 0.552 0.022 0.84s-0.221 0.545-0.486 0.774l-7.31 6.377 2.188 9.444c0.066 0.339 0.042 0.643-0.072 0.911s-0.289 0.488-0.525 0.657c-0.236 0.17-0.505 0.263-0.807 0.282s-0.593-0.057-0.872-0.227l-8.288-4.999z"></path>
</symbol>
<symbol id="icon-down" viewBox="0 0 32 32">
<path d="M16 20.269c-0.149 0-0.29-0.027-0.422-0.083s-0.259-0.143-0.381-0.265l-6.592-6.592c-0.227-0.227-0.334-0.497-0.323-0.812s0.13-0.586 0.357-0.812c0.227-0.227 0.497-0.34 0.812-0.34s0.586 0.113 0.812 0.34l5.738 5.771 5.771-5.771c0.227-0.227 0.492-0.334 0.796-0.323s0.569 0.13 0.796 0.357c0.227 0.227 0.34 0.497 0.34 0.812s-0.113 0.586-0.34 0.812l-6.559 6.559c-0.122 0.122-0.249 0.21-0.381 0.265s-0.273 0.083-0.422 0.083z"></path>
</symbol>
<symbol id="icon-close" viewBox="0 0 32 32">
<path d="M21.589 8.459l-5.657 5.656-5.656-5.656-1.885 1.885 5.656 5.656-5.656 5.656 1.885 1.885 5.656-5.656 5.657 5.656 1.885-1.885-5.656-5.656 5.656-5.656-1.885-1.885z"></path>
</symbol>
</defs>
</svg>